<svg version="1.1" preserveAspectRatio="none" xmlns="http://www.w3.org/2000/svg" width="500" height="500" viewBox="0 0 500 500"><rect width="100%" height="100%" fill="#1E1F22" fill-opacity="1"/><svg viewBox="48.0351 370.3 480.4628 70" width="333" height="48.51572275730816" x="83.5px" y="225.7421px" xmlns="http://www.w3.org/2000/svg" xmlns:xlink="http://www.w3.org/1999/xlink" preserveAspectRatio="none"><defs></defs><style>.companyName {fill:#EBE7D9;fill-opacity:1;}.icon3 {fill:#F55139;fill-opacity:1;}.icon3-str {stroke:#F55139;stroke-opacity:1;}</style><g opacity="1" transform="rotate(0 135.5695 370.3)">
<svg width="392.9284" height="70" x="135.5695" y="370.3" version="1.1" preserveAspectRatio="none" viewBox="1.16 -28.48 162.56 28.96">
  <g transform="matrix(1 0 0 1 0 0)" class="companyName"><path id="id-D6z1nYkh6" d="M1.16 0L6.76-28L18.48-28Q22.76-28 25.86-26.58Q28.96-25.16 30.62-22.52Q32.28-19.88 32.28-16.32L32.28-16.32Q32.28-11.44 30.08-7.74Q27.88-4.04 23.94-2.02Q20 0 14.84 0L14.84 0L1.16 0ZM8.72-5.32L15.04-5.32Q18.32-5.32 20.74-6.70Q23.16-8.08 24.44-10.50Q25.72-12.92 25.72-15.96L25.72-15.96Q25.72-19.12 23.68-20.90Q21.64-22.68 17.76-22.68L17.76-22.68L12.20-22.68L8.72-5.32Z M54.40-6.04L56.04-14.44L61.96-14.44L59.64-2.92Q57.52-1.28 54.72-0.40Q51.92 0.48 48.92 0.48L48.92 0.48Q44.72 0.48 41.60-1.04Q38.48-2.56 36.78-5.32Q35.08-8.08 35.08-11.68L35.08-11.68Q35.08-16.44 37.28-20.28Q39.48-24.12 43.48-26.30Q47.48-28.48 52.68-28.48L52.68-28.48Q56.68-28.48 59.62-27.24Q62.56-26 64.36-23.60L64.36-23.60L59.72-19.84Q58.32-21.48 56.56-22.22Q54.80-22.96 52.40-22.96L52.40-22.96Q49.20-22.96 46.76-21.54Q44.32-20.12 42.98-17.64Q41.64-15.16 41.64-12.08L41.64-12.08Q41.64-8.84 43.74-6.94Q45.84-5.04 49.76-5.04L49.76-5.04Q52.24-5.04 54.40-6.04L54.40-6.04Z M91.08 0.48Q86.88 0.48 83.74-1.04Q80.60-2.56 78.92-5.32Q77.24-8.08 77.24-11.68L77.24-11.68Q77.24-16.44 79.42-20.26Q81.60-24.08 85.56-26.28Q89.52-28.48 94.64-28.48L94.64-28.48Q98.40-28.48 101.28-27.20Q104.16-25.92 105.64-23.52L105.64-23.52L100.96-19.68Q98.72-22.96 94.20-22.96L94.20-22.96Q91.12-22.96 88.76-21.52Q86.40-20.08 85.10-17.60Q83.80-15.12 83.80-12.08L83.80-12.08Q83.80-8.84 85.86-6.94Q87.92-5.04 91.64-5.04L91.64-5.04Q96.08-5.04 99.08-8.28L99.08-8.28L102.92-4.36Q98.76 0.48 91.08 0.48L91.08 0.48Z M126.36 0L125.04-6L112.00-6L108.36 0L101.44 0L119.56-28L125.96-28L132.84 0L126.36 0ZM115.00-10.92L123.96-10.92L121.60-21.72L115.00-10.92Z M163.72-19.32Q163.72-15.40 161.60-12.60Q159.48-9.80 155.72-8.64L155.72-8.64L160.60 0L153.76 0L149.36-7.84L143.84-7.84L142.28 0L135.76 0L141.36-28L152.76-28Q157.96-28 160.84-25.72Q163.72-23.44 163.72-19.32L163.72-19.32ZM150.36-13Q153.60-13 155.38-14.48Q157.16-15.96 157.16-18.72L157.16-18.72Q157.16-20.72 155.80-21.72Q154.44-22.72 151.92-22.72L151.92-22.72L146.80-22.72L144.84-13L150.36-13Z"/></g>
</svg>
</g><g opacity="1" transform="rotate(0 48.0351 370.3)">
<svg width="87.5344" height="70" x="48.0351" y="370.3" version="1.1" preserveAspectRatio="none" viewBox="-4.6 -33.68 47.12 37.68">
  <g transform="matrix(1 0 0 1 0 0)" class="icon3"><path id="id-hTdFi603-2" d="M-4.60 4L15.88-33.68L24.12-33.68L3.64 4L-4.60 4Z M13.80 4L34.28-33.68L42.52-33.68L22.04 4L13.80 4Z"/></g>
</svg>
</g></svg></svg>